<?xml version="1.0" encoding="utf-8"?>
<!-- Generator: Adobe Illustrator 28.0.0, SVG Export Plug-In . SVG Version: 6.00 Build 0)  -->
<svg version="1.1" id="Layer_1" xmlns="http://www.w3.org/2000/svg" xmlns:xlink="http://www.w3.org/1999/xlink" x="0px" y="0px"
	 viewBox="0 0 75 75" style="enable-background:new 0 0 75 75;" xml:space="preserve">
<style type="text/css">
	.st0{fill:none;stroke:#005eb8;stroke-width:1.5;stroke-miterlimit:10;}
	.st1{fill:none;stroke:#005eb8;stroke-width:1.25;stroke-miterlimit:10;}
</style>
<circle class="st0" cx="38.3" cy="54.2" r="4.4"/>
<rect x="16.7" y="8.7" class="st0" width="42.5" height="58"/>
<line class="st0" x1="16" y1="69.3" x2="20" y2="69.3"/>
<line class="st0" x1="56" y1="69.3" x2="60" y2="69.3"/>
<rect x="22.5" y="20.3" class="st0" width="31.2" height="21.1"/>
<line class="st0" x1="22.5" y1="36.4" x2="54" y2="36.4"/>
<polyline class="st0" points="25.4,20.3 25.4,17.6 31,17.6 31,20.3 "/>
<polyline class="st0" points="45.3,20.3 45.3,17.6 50.9,17.6 50.9,20.3 "/>
<rect x="25.4" y="25.6" class="st1" width="6" height="2.3"/>
<polygon class="st1" points="50.2,25.9 48.8,25.9 48.8,24.5 46.7,24.5 46.7,25.9 45.3,25.9 45.3,27.9 46.7,27.9 46.7,29.3 
	48.8,29.3 48.8,27.9 50.2,27.9 "/>
</svg>
